<?xml version="1.0" encoding="UTF-8" standalone="no"?>
<svg
   xmlns:dc="http://purl.org/dc/elements/1.1/"
   xmlns:cc="http://creativecommons.org/ns#"
   xmlns:rdf="http://www.w3.org/1999/02/22-rdf-syntax-ns#"
   xmlns:svg="http://www.w3.org/2000/svg"
   xmlns="http://www.w3.org/2000/svg"
   xmlns:sodipodi="http://sodipodi.sourceforge.net/DTD/sodipodi-0.dtd"
   xmlns:inkscape="http://www.inkscape.org/namespaces/inkscape"
   inkscape:version="1.0 (4035a4f, 2020-05-01)"
   sodipodi:docname="curator-logo-white-iw.svg"
   version="1.1"
   viewBox="0 0 250 100"
   data-name="Layer 1"
   id="Layer_1">
  <metadata
     id="metadata882">
    <rdf:RDF>
      <cc:Work
         rdf:about="">
        <dc:format>image/svg+xml</dc:format>
        <dc:type
           rdf:resource="http://purl.org/dc/dcmitype/StillImage" />
        <dc:title></dc:title>
      </cc:Work>
    </rdf:RDF>
  </metadata>
  <sodipodi:namedview
     inkscape:current-layer="Layer_1"
     inkscape:window-maximized="0"
     inkscape:window-y="23"
     inkscape:window-x="19"
     inkscape:cy="50"
     inkscape:cx="125"
     inkscape:zoom="2.848"
     showgrid="false"
     id="namedview880"
     inkscape:window-height="680"
     inkscape:window-width="1257"
     inkscape:pageshadow="2"
     inkscape:pageopacity="0"
     guidetolerance="10"
     gridtolerance="10"
     objecttolerance="10"
     borderopacity="1"
     bordercolor="#666666"
     pagecolor="#ffffff" />
  <defs
     id="defs835">
    <style
       id="style833">.cls-1{fill:#fff;}</style>
  </defs>
  <path
     style="fill:#ffffff;fill-opacity:1"
     id="path837"
     d="M83.54,72.57a2.24,2.24,0,0,0,1.71-2.3,2.63,2.63,0,0,0-2.93-2.55H76.65v10H82.5A2.66,2.66,0,0,0,85.44,75,2.39,2.39,0,0,0,83.54,72.57Zm-4.31-2.7h2.51a.83.83,0,0,1,.88.85.84.84,0,0,1-.88.87H79.23Zm2.6,5.72h-2.6V73.72h2.6a.93.93,0,0,1,1,1A.9.9,0,0,1,81.83,75.59Z"
     class="cls-1" />
  <polygon
     style="fill:#ffffff;fill-opacity:1"
     id="polygon839"
     points="91.86 71.41 89.68 67.72 86.77 67.72 90.56 73.69 90.56 77.73 93.15 77.73 93.15 73.69 96.93 67.72 94 67.72 91.86 71.41"
     class="cls-1" />
  <rect
     style="fill:#ffffff;fill-opacity:1"
     id="rect841"
     height="10.01"
     width="2.58"
     y="67.72"
     x="104.36"
     class="cls-1" />
  <polygon
     style="fill:#ffffff;fill-opacity:1"
     id="polygon843"
     points="116.88 73.48 112.83 67.72 110.17 67.72 110.17 77.73 112.75 77.73 112.75 71.68 116.99 77.73 119.48 77.73 119.48 67.72 116.88 67.72 116.88 73.48"
     class="cls-1" />
  <polygon
     style="fill:#ffffff;fill-opacity:1"
     id="polygon845"
     points="122.14 69.97 124.94 69.97 124.94 77.73 127.53 77.73 127.53 69.97 130.32 69.97 130.32 67.72 122.14 67.72 122.14 69.97"
     class="cls-1" />
  <polygon
     style="fill:#ffffff;fill-opacity:1"
     id="polygon847"
     points="132.98 77.73 140.32 77.73 140.32 75.56 135.56 75.56 135.56 73.75 140.21 73.75 140.21 71.56 135.56 71.56 135.56 69.9 140.32 69.9 140.32 67.72 132.98 67.72 132.98 77.73"
     class="cls-1" />
  <path
     style="fill:#ffffff;fill-opacity:1"
     id="path849"
     d="M151.74,71.05a3.22,3.22,0,0,0-3.48-3.33h-5v10h2.58V74.34h1.32l1.68,3.39h3l-2-3.68A3,3,0,0,0,151.74,71.05Zm-3.87,1.1h-2V69.9h2a1.13,1.13,0,1,1,0,2.25Z"
     class="cls-1" />
  <polygon
     style="fill:#ffffff;fill-opacity:1"
     id="polygon851"
     points="163.42 74.4 161.71 67.72 159.73 67.72 158.02 74.4 156.5 67.72 153.6 67.72 156.47 77.73 159.2 77.73 160.72 71.46 162.24 77.73 164.97 77.73 167.83 67.72 164.92 67.72 163.42 74.4"
     class="cls-1" />
  <path
     style="fill:#ffffff;fill-opacity:1"
     id="path853"
     d="M174.62,67.56A5.18,5.18,0,1,0,180,72.73,5.1,5.1,0,0,0,174.62,67.56Zm0,8.07a2.9,2.9,0,1,1,2.72-2.9A2.71,2.71,0,0,1,174.62,75.63Z"
     class="cls-1" />
  <path
     style="fill:#ffffff;fill-opacity:1"
     id="path855"
     d="M191.19,71.05a3.22,3.22,0,0,0-3.48-3.33h-5v10h2.58V74.34h1.32l1.68,3.39h3l-2-3.68A3,3,0,0,0,191.19,71.05Zm-3.87,1.1h-2V69.9h2a1.13,1.13,0,1,1,0,2.25Z"
     class="cls-1" />
  <polygon
     style="fill:#ffffff;fill-opacity:1"
     id="polygon857"
     points="202.89 67.72 199.71 67.72 196.63 71.83 196.63 67.72 194.05 67.72 194.05 77.73 196.63 77.73 196.63 74.81 197.31 73.97 199.93 77.73 203.1 77.73 199 72.4 202.89 67.72"
     class="cls-1" />
  <path
     style="fill:#ffffff;fill-opacity:1"
     id="path859"
     d="M209.26,71.47c-1.12-.21-1.73-.39-1.73-.91s.33-.78,1.19-.78a4.65,4.65,0,0,1,2.82,1L213,69a6.09,6.09,0,0,0-4.07-1.4c-2.57,0-4,1.46-4,3.14,0,2.37,2.31,2.79,4,3.12,1.07.22,1.71.45,1.71,1s-.54.86-1.43.86a4.48,4.48,0,0,1-3.19-1.33l-1.37,1.94A6.15,6.15,0,0,0,209,77.91c2.68,0,4.17-1.33,4.17-3.35C213.19,72.3,210.91,71.82,209.26,71.47Z"
     class="cls-1" />
  <path
     style="fill:#ffffff;fill-opacity:1"
     id="path861"
     d="M89.52,33.68a7.88,7.88,0,0,1,6.83,3.51L99.85,34C97.81,31.23,94.6,29,89.29,29c-8.53,0-14.36,6.3-14.36,14.76s5.83,14.83,14.36,14.83c5.31,0,8.52-2.22,10.56-5l-3.5-3.21a8,8,0,0,1-6.83,3.5c-5.55,0-9.11-4.32-9.11-10.16S84,33.68,89.52,33.68Z"
     class="cls-1" />
  <path
     style="fill:#ffffff;fill-opacity:1"
     id="path863"
     d="M122.14,57.91h5.26V29.72h-5.26V50a10.18,10.18,0,0,1-7.82,4c-3.61,0-5.95-1.4-5.95-6.07V29.72h-5.25v19.9c0,6,3,9,9,9a13.88,13.88,0,0,0,10-4.56Z"
     class="cls-1" />
  <path
     style="fill:#ffffff;fill-opacity:1"
     id="path865"
     d="M148.88,34.38V29.07a12,12,0,0,0-9.23,5V29.72H134.4V57.91h5.25V38.3a10,10,0,0,1,7.42-4.09A8.77,8.77,0,0,1,148.88,34.38Z"
     class="cls-1" />
  <path
     style="fill:#ffffff;fill-opacity:1"
     id="path867"
     d="M174.26,57.91v-19c0-7.18-5.19-9.86-11.32-9.86a15.81,15.81,0,0,0-11.55,4.61l2.27,3.61a11.52,11.52,0,0,1,8.46-3.73c4,0,6.89,2.1,6.89,5.6v4.67c-2.16-2.51-5.43-3.73-9.22-3.73-4.73,0-9.8,2.8-9.8,9.22,0,6.18,5.13,9.34,9.8,9.34a12.1,12.1,0,0,0,9.22-3.8v3.1Zm-12.49-3c-3.79,0-6.47-2.28-6.47-5.6s2.68-5.61,6.47-5.61A8.93,8.93,0,0,1,169,46.93v4.79A8.93,8.93,0,0,1,161.77,54.93Z"
     class="cls-1" />
  <path
     style="fill:#ffffff;fill-opacity:1"
     id="path869"
     d="M189.09,58.61c2.74,0,4.38-.76,5.49-1.81l-1.35-4a4,4,0,0,1-2.86,1.11c-1.81,0-2.74-1.46-2.74-3.45V34.33h5.72V29.72h-5.72V22h-5.25v7.71h-4.67v4.61h4.67V51.66C182.38,56.1,184.65,58.61,189.09,58.61Z"
     class="cls-1" />
  <path
     style="fill:#ffffff;fill-opacity:1"
     id="path871"
     d="M209.17,29c-8.76,0-14.24,6.65-14.24,14.76s5.48,14.83,14.24,14.83S223.41,52,223.41,43.78,218,29,209.17,29Zm0,24.92c-5.61,0-8.76-4.79-8.76-10.16s3.15-10.1,8.76-10.1,8.75,4.79,8.75,10.1S214.83,53.94,209.17,53.94Z"
     class="cls-1" />
  <path
     style="fill:#ffffff;fill-opacity:1"
     id="path873"
     d="M234,34V29.72h-5.25V57.91H234V38.3a10,10,0,0,1,7.41-4.09,8.63,8.63,0,0,1,1.81.17V29.07A12,12,0,0,0,234,34Z"
     class="cls-1" />
  <path
     style="fill:#ffffff;fill-opacity:1"
     id="path875"
     d="M35.08,64.84,25.5,53.72l9.58-11.11,6.65,7.71H60.34L42.58,29.72h-15l-20.69,24,20.69,24h15L60.39,57.07H41.77Zm8.56-18.68-5.81-6.74L41.64,35l9.62,11.16ZM29.49,33.88h7.62L21.8,51.64H14.18ZM14.18,55.81H21.8L37.11,73.57H29.49Zm37.13,5.43L41.65,72.46,37.83,68l5.85-6.79Z"
     class="cls-1" />
  <polygon
     style="fill:#ffffff;fill-opacity:1"
     id="polygon877"
     points="35.07 58.31 38.98 53.71 35.06 49.1 31.14 53.71 35.07 58.31"
     class="cls-1" />
</svg>
