<svg id="Layer_1" data-name="Layer 1" xmlns="http://www.w3.org/2000/svg" viewBox="0 0 250 100"><defs><style>.cls-1{fill:none;}</style></defs><path class="cls-1" d="M147,71.1h-2v2.26h2a1.13,1.13,0,1,0,0-2.26Z"/><path class="cls-1" d="M80.94,74.93h-2.6v1.86h2.6a.89.89,0,0,0,1-.91A.93.93,0,0,0,80.94,74.93Z"/><path class="cls-1" d="M173.73,71a2.91,2.91,0,1,0,2.72,2.9A2.7,2.7,0,0,0,173.73,71Z"/><polygon class="cls-1" points="40.76 73.67 50.42 62.45 42.79 62.45 36.94 69.23 40.76 73.67"/><path class="cls-1" d="M168.12,48.14a8.93,8.93,0,0,0-7.24-3.21c-3.79,0-6.47,2.28-6.47,5.6s2.68,5.61,6.47,5.61a8.93,8.93,0,0,0,7.24-3.21Z"/><polygon class="cls-1" points="36.94 40.63 42.75 47.37 50.37 47.37 40.75 36.21 36.94 40.63"/><polygon class="cls-1" points="20.91 57.01 13.29 57.01 28.6 74.78 36.22 74.78 20.91 57.01"/><polygon class="cls-1" points="20.91 52.85 36.22 35.09 28.6 35.09 13.29 52.85 20.91 52.85"/><path class="cls-1" d="M81.73,71.93a.84.84,0,0,0-.88-.86H78.34V72.8h2.51A.85.85,0,0,0,81.73,71.93Z"/><path class="cls-1" d="M208.28,34.89c-5.61,0-8.76,4.79-8.76,10.1s3.15,10.15,8.76,10.15S217,50.36,217,45,213.94,34.89,208.28,34.89Z"/><path class="cls-1" d="M186.43,71.1h-2v2.26h2a1.14,1.14,0,1,0,0-2.26Z"/><path d="M82.65,73.78a2.25,2.25,0,0,0,1.71-2.3,2.63,2.63,0,0,0-2.93-2.55H75.76v10h5.85a2.66,2.66,0,0,0,2.94-2.72A2.39,2.39,0,0,0,82.65,73.78Zm-4.31-2.71h2.51a.84.84,0,0,1,.88.86.85.85,0,0,1-.88.87H78.34Zm2.6,5.72h-2.6V74.93h2.6a.93.93,0,0,1,1,.95A.89.89,0,0,1,80.94,76.79Z"/><polygon points="90.97 72.62 88.79 68.93 85.88 68.93 89.67 74.9 89.67 78.94 92.26 78.94 92.26 74.9 96.04 68.93 93.11 68.93 90.97 72.62"/><rect x="103.47" y="68.93" width="2.58" height="10.01"/><polygon points="115.99 74.69 111.94 68.93 109.28 68.93 109.28 78.94 111.86 78.94 111.86 72.89 116.1 78.94 118.59 78.94 118.59 68.93 115.99 68.93 115.99 74.69"/><polygon points="121.25 71.18 124.05 71.18 124.05 78.94 126.64 78.94 126.64 71.18 129.43 71.18 129.43 68.93 121.25 68.93 121.25 71.18"/><polygon points="132.09 78.94 139.43 78.94 139.43 76.76 134.67 76.76 134.67 74.96 139.32 74.96 139.32 72.77 134.67 72.77 134.67 71.1 139.43 71.1 139.43 68.93 132.09 68.93 132.09 78.94"/><path d="M150.85,72.26a3.22,3.22,0,0,0-3.48-3.33h-5v10h2.58V75.55h1.32l1.68,3.39h3l-2-3.68A3,3,0,0,0,150.85,72.26ZM147,73.36h-2V71.1h2a1.13,1.13,0,1,1,0,2.26Z"/><polygon points="162.53 75.61 160.82 68.93 158.84 68.93 157.13 75.61 155.61 68.93 152.71 68.93 155.58 78.94 158.31 78.94 159.83 72.66 161.34 78.94 164.08 78.94 166.94 68.93 164.03 68.93 162.53 75.61"/><path d="M173.73,68.76a5.18,5.18,0,1,0,5.35,5.18A5.1,5.1,0,0,0,173.73,68.76Zm0,8.08a2.91,2.91,0,1,1,2.72-2.9A2.71,2.71,0,0,1,173.73,76.84Z"/><path d="M190.3,72.26a3.22,3.22,0,0,0-3.48-3.33h-5v10h2.58V75.55h1.32l1.68,3.39h3l-2-3.68A3,3,0,0,0,190.3,72.26Zm-3.87,1.1h-2V71.1h2a1.14,1.14,0,1,1,0,2.26Z"/><polygon points="202 68.93 198.82 68.93 195.74 73.04 195.74 68.93 193.16 68.93 193.16 78.94 195.74 78.94 195.74 76.01 196.42 75.17 199.04 78.94 202.21 78.94 198.11 73.61 202 68.93"/><path d="M208.36,72.68c-1.11-.21-1.72-.39-1.72-.92S207,71,207.83,71a4.67,4.67,0,0,1,2.82,1l1.41-1.85A6.16,6.16,0,0,0,208,68.78c-2.57,0-4,1.45-4,3.13,0,2.38,2.31,2.8,4,3.13,1.07.22,1.71.45,1.71,1s-.54.85-1.43.85a4.52,4.52,0,0,1-3.19-1.32l-1.37,1.94a6.15,6.15,0,0,0,4.45,1.59c2.68,0,4.17-1.34,4.17-3.35C212.3,73.51,210,73,208.36,72.68Z"/><path d="M88.63,34.89a7.89,7.89,0,0,1,6.83,3.5L99,35.18c-2-2.74-5.25-5-10.56-5C79.87,30.22,74,36.52,74,45S79.87,59.81,88.4,59.81c5.31,0,8.52-2.22,10.56-5l-3.5-3.21a8,8,0,0,1-6.83,3.5c-5.55,0-9.11-4.32-9.11-10.15S83.08,34.89,88.63,34.89Z"/><path d="M121.25,59.11h5.26V30.92h-5.26V51.17a10.15,10.15,0,0,1-7.82,4c-3.61,0-6-1.4-6-6.07V30.92h-5.25v19.9c0,6,3,9,9,9a13.93,13.93,0,0,0,10-4.55Z"/><path d="M148,35.59V30.28a12,12,0,0,0-9.23,5V30.92h-5.25V59.11h5.25V39.5a10,10,0,0,1,7.42-4.08A8.13,8.13,0,0,1,148,35.59Z"/><path d="M173.37,59.11v-19c0-7.18-5.19-9.87-11.32-9.87a15.85,15.85,0,0,0-11.55,4.61l2.27,3.62a11.52,11.52,0,0,1,8.46-3.73c4,0,6.89,2.1,6.89,5.6V45c-2.16-2.51-5.43-3.74-9.22-3.74-4.73,0-9.81,2.8-9.81,9.22,0,6.19,5.14,9.34,9.81,9.34A12.09,12.09,0,0,0,168.12,56v3.09Zm-12.49-3c-3.79,0-6.47-2.28-6.47-5.61s2.68-5.6,6.47-5.6a8.93,8.93,0,0,1,7.24,3.21v4.79A8.93,8.93,0,0,1,160.88,56.14Z"/><path d="M188.2,59.81c2.74,0,4.38-.75,5.49-1.81l-1.35-4a4,4,0,0,1-2.86,1.11c-1.81,0-2.74-1.46-2.74-3.44V35.53h5.72V30.92h-5.72v-7.7h-5.25v7.7h-4.67v4.61h4.67V52.87C181.49,57.3,183.76,59.81,188.2,59.81Z"/><path d="M208.28,30.22C199.52,30.22,194,36.88,194,45s5.48,14.82,14.24,14.82S222.52,53.16,222.52,45,217.09,30.22,208.28,30.22Zm0,24.92c-5.61,0-8.76-4.78-8.76-10.15s3.15-10.1,8.76-10.1S217,39.68,217,45,213.94,55.14,208.28,55.14Z"/><path d="M233.08,35.24V30.92h-5.25V59.11h5.25V39.5a10,10,0,0,1,7.41-4.08,8,8,0,0,1,1.81.17V30.28A12,12,0,0,0,233.08,35.24Z"/><path d="M34.19,66,24.61,54.93l9.58-11.11,6.65,7.71H59.45L41.69,30.92h-15L6,54.93l20.69,24h15L59.49,58.28H40.88Zm8.56-18.67-5.81-6.74,3.81-4.42,9.62,11.16ZM28.6,35.09h7.62L20.91,52.85H13.29ZM13.29,57h7.62L36.22,74.77H28.6Zm37.13,5.44L40.76,73.67l-3.82-4.44,5.85-6.78Z"/><polygon points="34.18 59.52 38.09 54.92 34.17 50.3 30.25 54.92 34.18 59.52"/></svg>